PathFileType	4	(X/Y/Z)	Patient4_TMGait_0pt2_01_right_23.trc.trc
DataRate	CameraRate	NumFrames	NumMarkers	Units	OrigDataRate	OrigDataStartFrame	OrigNumFrames
44.728434504792	44.728434504792	4	33	mm	44.728434504792	53	       141
Frame#	Time	Sacral			L.Shoulder			Chest			R.Shoulder			Neck			R.ASIS			L.ASIS			R.Thigh.Superior			R.Thigh.Lateral			R.Thigh.Inferior			R.Patella			L.Thigh.Superior			L.Thigh.Lateral			L.Thigh.Inferior			L.Patella			L.Shank.Superior			L.Shank.Lateral			L.Shank.Inferior			R.Shank.Superior			R.Shank.Lateral			R.Shank.Inferior			R.Heel			R.Midfoot.Superior			R.Midfoot.Lateral			R.Toe			L.Heel			L.Midfoot.Lateral			L.Midfoot.Superior			L.Toe			L.Elbow			L.Wrist			R.Elbow			R.Wrist			
		X1	Y1	Z1	X2	Y2	Z2	X3	Y3	Z3	X4	Y4	Z4	X5	Y5	Z5	X6	Y6	Z6	X7	Y7	Z7	X8	Y8	Z8	X9	Y9	Z9	X10	Y10	Z10	X11	Y11	Z11	X12	Y12	Z12	X13	Y13	Z13	X14	Y14	Z14	X15	Y15	Z15	X16	Y16	Z16	X17	Y17	Z17	X18	Y18	Z18	X19	Y19	Z19	X20	Y20	Z20	X21	Y21	Z21	X22	Y22	Z22	X23	Y23	Z23	X24	Y24	Z24	X25	Y25	Z25	X26	Y26	Z26	X27	Y27	Z27	X28	Y28	Z28	X29	Y29	Z29	X30	Y30	Z30	X31	Y31	Z31	X32	Y32	Z32	X33	Y33	Z33	

53	52.792571428571	829.182809449323	989.951577712584	563.701168397818	989.396721809352	1409.146027600480	353.537859668315	1100.307082059882	1350.977924989581	512.963597732997	1026.294704023503	1428.861986946489	688.753425809537	979.179271921212	1480.934710249066	508.707862894174	1067.498886658146	931.390165154774	668.757817646842	1035.290951247105	944.825016839223	395.702276846365	1111.646249883498	730.141514711081	618.125342152181	1035.187879911706	611.915706174960	671.010208453459	1104.575425173025	567.865900944204	579.829810529063	1104.572739054107	471.962437657587	577.347208342597	1122.741854409909	762.539554744056	425.110744700694	1078.261358502701	636.438825614392	343.085669637644	1179.742054035005	572.689273365792	406.830510042139	1189.559606030168	482.435586907684	394.443671604031	1118.157458870470	419.591257007781	380.985003107789	973.011720888443	389.892886889020	331.162977915241	952.709629828037	256.446247057336	373.736801814157	1058.191783272317	386.061235714790	580.821200944982	977.267181006574	290.811756173353	644.502344928175	991.825970276085	196.464787408562	572.149064319631	829.464479968053	45.364724851348	550.627617921323	1003.945028182101	96.137236073361	575.270450198710	917.343503407883	38.183521310741	619.055583025175	1124.512823415200	41.018369346588	596.844146371460	761.213243554108	217.717519174855	413.786922226135	804.982043416929	164.334611306438	329.072408518300	911.021886020097	148.595753477476	344.536581268107	963.242643113049	28.394939450399	308.579947994329	965.061685980861	1046.944594384599	262.609644844981	1032.785476623317	796.056642864008	267.812333656010	1062.160157971475	1081.993547519935	822.567872115814	1231.820378851925	885.441538852014	812.716873232672	
54	52.814928571429	829.178235240122	989.136340622369	567.051517325220	985.611044125336	1407.923681634021	354.081618637863	1099.452706928528	1350.186060970048	511.589066808667	1028.634025649261	1428.448485089253	688.562086643670	978.258927832036	1480.062701389774	509.048777337079	1068.493776327535	930.373400540787	668.923515416014	1033.094749280441	944.188725935992	396.320906892715	1111.878026495803	728.932705578343	618.070752625617	1035.644092621192	610.796222209880	671.224620928846	1104.343039419982	566.840805858945	579.400351450933	1104.060633748943	470.621853746396	576.705740844172	1123.759061872204	765.439989307589	426.599334568366	1082.249107326567	638.386692199102	344.477650487939	1184.950869734256	576.705925936526	408.510652555146	1196.609984631007	486.329153468372	395.711562118559	1126.002791237580	422.322790054607	382.339320545911	980.634892545878	390.681665563338	334.129109610028	963.351813682136	256.696344685865	376.075234435730	1056.792315156844	384.953761165848	580.413951180015	975.425238416839	290.296836593949	644.459328295969	988.671694291879	195.922710270054	571.998578036473	825.066815087322	45.589701890739	550.731181145068	999.585707593158	96.098807450248	575.305700960854	912.941818292333	38.225761372144	619.136293044606	1120.099901037347	40.814622243444	596.863249893847	773.411922263839	213.201793530035	418.187683592076	817.260477565559	162.436699351368	332.143091540764	923.536482545386	149.364507894378	346.428286791869	978.063132866018	29.250325313370	307.550039324069	946.590486367506	1046.615059321913	266.675390415911	995.806844477776	790.952850891085	273.577638141872	1078.943970357862	1083.489353768652	822.267012540819	1263.571405888044	901.555913589894	805.570013122100	
55	52.837285714286	829.146399712121	988.948020678534	570.107683267980	982.011756814641	1407.343732044453	354.679568223012	1098.823138233661	1349.741852271259	510.032054724111	1031.459839228743	1428.353038201389	688.210167529980	977.659324354016	1479.630189313909	509.419205656520	1069.407427053455	929.623541845379	668.610229084508	1030.702337970686	944.011434943391	396.525616757158	1111.535704844649	727.865393035117	617.703849833952	1035.348276797010	610.024108142190	671.297941374205	1103.245050627412	565.992058307956	578.884247829210	1102.552882196488	469.611339757870	576.061825324815	1123.796617163132	768.189806471358	427.555094481088	1084.508243420268	640.312196190511	345.589906176560	1188.139843794789	580.382748506430	409.800690033311	1201.551198104557	490.216485867533	396.697247874428	1132.403193285021	424.944275187034	383.384493381378	987.578110946417	389.627540761347	336.591269216861	974.900040430137	255.176690365944	378.002300224038	1054.632479372769	384.176866535371	580.044059205488	973.011478944634	289.973074269353	644.456010303231	985.203320040407	195.578335728841	571.913269586989	820.650911437070	45.835426391269	550.864133231882	995.215144432180	96.080427454750	575.379926360308	908.530201885485	38.283083660386	619.249356544695	1115.669429086415	40.644190388024	596.876987917834	787.400957454283	203.912339786620	421.805376596236	832.237545861667	156.820112282229	334.563574053901	938.534374540288	148.442468951536	347.929358688166	997.531285956219	30.496604097358	306.325291403106	928.095043406198	1047.870606618441	270.315902362159	960.643848409661	789.227753511037	279.340938050089	1095.743880683930	1085.968884853558	821.543650435486	1293.850502667217	919.822277791814	797.533024341765	
56	52.859642857143	829.068542307086	989.413842497742	572.884669979490	978.635346079008	1407.437089546624	355.317096549237	1098.426838052237	1349.659297503029	508.288801581363	1034.766589279799	1428.584302632677	687.679605437334	977.405072413577	1479.654247370928	509.816335773697	1070.231852497216	929.171986083212	667.813811247488	1028.098737589736	944.318789636158	396.311559619042	1110.603471017186	726.977949853545	617.027123782050	1034.299297113505	609.628782010392	671.258375791012	1101.263555706666	565.344726165178	578.308428870657	1100.040692997335	468.958015089837	575.465108040767	1122.854484026650	770.738929480858	427.983708367337	1085.056766238995	642.157728227492	346.383798108499	1189.300828910760	583.624894788412	410.695436589024	1204.384487253889	494.035011737694	397.382751660229	1137.391708851825	427.423408129411	384.075015163380	994.048876228719	386.756589881054	338.340967242167	987.473650987651	252.034475763408	379.352643797748	1051.706458127769	383.753255185914	579.746630835385	970.016711287119	289.857175888996	644.515195281107	981.417266610099	195.447997525525	571.905708057948	816.217846790746	46.110493702887	551.028582650182	990.837130327662	96.082427328868	575.495328621843	904.109205890828	38.360247503572	619.394394459160	1111.221659546648	40.500491668771	596.886167591035	803.443536484888	190.432608817221	424.319497548825	850.075178019060	147.867469433420	336.112894973149	956.057008000888	145.902602445981	348.909728658342	1021.342722629261	32.088123184842	305.001019714174	909.891552192096	1050.680253841052	273.567622433797	927.807579716388	790.479812553751	285.029639541603	1112.444086834653	1089.377495202816	820.382215318861	1322.320270114698	939.930544351977	788.717063833608	
